<?xml version="1.0" standalone="no"?>
<!DOCTYPE svg PUBLIC "-//W3C//DTD SVG 20010904//EN"
 "http://www.w3.org/TR/2001/REC-SVG-20010904/DTD/svg10.dtd">
<svg version="1.0" xmlns="http://www.w3.org/2000/svg"
 width="48.000000pt" height="48.000000pt" viewBox="0 0 48.000000 48.000000"
 preserveAspectRatio="xMidYMid meet">

<g transform="translate(0.000000,48.000000) scale(0.100000,-0.100000)"
fill="#000000" stroke="none">
<path d="M90 425 c0 -47 -3 -55 -19 -55 -43 0 -55 -62 -13 -68 38 -6 52 15 52
74 l0 54 35 -17 c31 -15 35 -21 35 -55 0 -31 -4 -38 -19 -38 -43 0 -55 -62
-13 -68 42 -6 52 14 52 99 l0 79 -50 25 c-27 14 -52 25 -55 25 -3 0 -5 -25 -5
-55z m-25 -75 c-3 -5 -11 -10 -16 -10 -6 0 -7 5 -4 10 3 6 11 10 16 10 6 0 7
-4 4 -10z m90 -50 c-3 -5 -11 -10 -16 -10 -6 0 -7 5 -4 10 3 6 11 10 16 10 6
0 7 -4 4 -10z"/>
<path d="M416 285 c32 -96 30 -139 -9 -196 -27 -41 -98 -79 -147 -79 -49 1
-112 31 -144 71 -15 19 -23 25 -18 14 25 -50 103 -95 164 -95 18 0 51 9 73 19
99 46 140 154 95 246 -11 22 -17 31 -14 20z"/>
<path d="M215 235 c-14 -13 -25 -33 -25 -45 0 -27 43 -70 70 -70 25 0 70 46
70 72 0 25 -44 68 -70 68 -11 0 -32 -11 -45 -25z m73 -48 c4 -20 -25 -34 -40
-19 -15 15 -1 44 19 40 10 -2 19 -11 21 -21z"/>
</g>
</svg>
